<svg width="24" height="24" viewBox="0 0 24 24" fill="none" xmlns="http://www.w3.org/2000/svg">
<path fill-rule="evenodd" clip-rule="evenodd" d="M10.4998 1.99997C9.14436 2.00008 7.80863 2.32433 6.60402 2.94566C5.39941 3.56699 4.36086 4.46739 3.575 5.57172C2.78914 6.67606 2.27878 7.95232 2.08647 9.29401C1.89417 10.6357 2.02551 12.0039 2.46954 13.2846C2.91357 14.5652 3.65741 15.721 4.639 16.6557C5.62059 17.5904 6.81147 18.2767 8.11228 18.6576C9.41309 19.0384 10.7861 19.1026 12.1168 18.8449C13.4475 18.5871 14.6972 18.0149 15.7618 17.176L19.4138 20.828C19.6024 21.0101 19.855 21.1109 20.1172 21.1086C20.3794 21.1064 20.6302 21.0012 20.8156 20.8158C21.001 20.6304 21.1062 20.3796 21.1084 20.1174C21.1107 19.8552 21.0099 19.6026 20.8278 19.414L17.1758 15.762C18.1638 14.5086 18.7789 13.0024 18.9509 11.4157C19.1228 9.82902 18.8446 8.22599 18.148 6.79006C17.4514 5.35414 16.3646 4.14333 15.0121 3.2962C13.6595 2.44908 12.0957 1.99986 10.4998 1.99997ZM3.99977 10.5C3.99977 8.77606 4.68458 7.12276 5.90357 5.90378C7.12256 4.68479 8.77586 3.99997 10.4998 3.99997C12.2237 3.99997 13.877 4.68479 15.096 5.90378C16.3149 7.12276 16.9998 8.77606 16.9998 10.5C16.9998 12.2239 16.3149 13.8772 15.096 15.0962C13.877 16.3152 12.2237 17 10.4998 17C8.77586 17 7.12256 16.3152 5.90357 15.0962C4.68458 13.8772 3.99977 12.2239 3.99977 10.5Z" fill="white"/>
</svg>
