<svg width="40" height="37" viewBox="0 0 40 37" fill="none" xmlns="http://www.w3.org/2000/svg">
<path id="&#226;&#128;&#156;" d="M9.93789 0L13.7888 2.88475C12.8778 3.97175 11.8841 5.64407 10.8075 7.9017C9.81366 10.0757 8.98551 12.4588 8.32298 15.0508C7.66046 17.6429 7.41201 20.1932 7.57764 22.7017C8.15735 22.5345 8.65424 22.409 9.06832 22.3254C9.56522 22.1582 10.0621 22.0746 10.559 22.0746C12.381 22.0746 13.913 22.7017 15.1553 23.9559C16.4803 25.1266 17.1429 26.7989 17.1429 28.9729C17.1429 31.3977 16.4389 33.3627 15.0311 34.8678C13.6232 36.2893 11.8427 37 9.68944 37C6.54244 37 4.14079 35.8294 2.48447 33.4881C0.828158 31.1469 0 28.304 0 24.9593C0 22.6181 0.372671 19.9842 1.11801 17.0576C1.94617 14.0475 3.10559 11.0373 4.59627 8.02712C6.08696 4.93333 7.86749 2.25763 9.93789 0ZM32.795 0L36.646 2.88475C35.735 3.97175 34.7412 5.64407 33.6646 7.9017C32.6708 10.0757 31.8427 12.4588 31.1801 15.0508C30.5176 17.6429 30.2692 20.1932 30.4348 22.7017C31.0145 22.5345 31.5114 22.409 31.9255 22.3254C32.4224 22.1582 32.9193 22.0746 33.4161 22.0746C35.2381 22.0746 36.7702 22.7017 38.0124 23.9559C39.3375 25.1266 40 26.7989 40 28.9729C40 31.3977 39.2961 33.3627 37.8882 34.8678C36.4803 36.2893 34.6998 37 32.5466 37C29.3996 37 26.9979 35.8294 25.3416 33.4881C23.6853 31.1469 22.8571 28.304 22.8571 24.9593C22.8571 22.6181 23.2298 19.9842 23.9752 17.0576C24.8033 14.0475 25.9627 11.0373 27.4534 8.02712C28.9441 4.93333 30.7246 2.25763 32.795 0Z" fill="#D02028"/>
</svg>
